# Blender 3.3.0
# www.blender.org
mtllib Trencharc.mtl
o aforward_Circle.016
v 0.971632 0.000806 -18.306511
v -0.971632 0.000806 -18.306515
v -4.286669 0.000806 -17.980009
v -7.474310 0.000806 -17.013048
v -10.412058 0.000805 -15.442791
v -11.983623 0.000804 -14.153042
v 10.412039 0.000805 -15.442801
v 7.474287 0.000806 -17.013056
v 4.286643 0.000806 -17.980013
v 0.971632 0.040004 -12.642406
v -0.971632 0.040004 -12.642407
v -3.181656 0.040004 -12.424739
v -5.306751 0.040004 -11.780098
v -7.265249 0.040004 -10.733259
v -8.312958 0.040004 -9.873427
v 7.265237 0.040004 -10.733267
v 5.306736 0.040004 -11.780104
v 3.181639 0.040004 -12.424740
v -3.139192 0.079202 -6.547146
v -4.118440 0.079202 -6.023727
v -4.642292 0.079202 -5.593812
v 4.118433 0.079202 -6.023731
v 3.139183 0.079202 -6.547150
v 2.076635 0.079202 -6.869468
v 0.971631 0.079202 -6.978301
v -0.971632 0.079202 -6.978301
v -2.076645 0.079202 -6.869466
v -0.000001 0.000800 -0.181383
v -13.015655 0.000804 -13.197037
v -0.000001 0.040000 -0.181383
v -9.028872 0.040004 -9.210254
v -0.000001 0.079200 -0.181383
v -5.042088 0.079202 -5.223469
v 13.015654 0.000804 -13.197037
v 11.547161 0.000805 -14.603052
v 9.028870 0.040004 -9.210254
v 8.049877 0.040004 -10.147596
v 5.042086 0.079202 -5.223472
v 4.552592 0.079202 -5.692140
vn -0.0000 1.0000 -0.0000
vt 0.128985 0.341044
vt 0.165131 0.266393
vt 0.232865 0.151587
vt 0.310142 0.066279
vt 0.393993 0.013747
vt 0.447215 0.002921
vt 0.006656 0.813710
vt 0.032092 0.640534
vt 0.073398 0.480933
vt 0.568680 0.560982
vt 0.604639 0.486715
vt 0.649563 0.410573
vt 0.700815 0.353994
vt 0.756428 0.319153
vt 0.791726 0.311973
vt 0.487547 0.874469
vt 0.504417 0.759613
vt 0.531813 0.653761
vt 0.940900 0.639376
vt 0.968293 0.622214
vt 0.985680 0.618677
vt 0.818139 0.932326
vt 0.826448 0.875751
vt 0.839942 0.823612
vt 0.858102 0.777912
vt 0.893527 0.704750
vt 0.915654 0.667245
vt 0.484193 0.999999
vt 0.484193 0.000000
vt 0.817245 1.000075
vt 0.817245 0.309957
vt 0.999719 0.997230
vt 0.999719 0.617568
vt 0.000000 1.000000
vt 0.001162 0.889575
vt 0.483095 1.000075
vt 0.483866 0.926838
vt 0.815889 0.997229
vt 0.816269 0.961155
s 0
usemtl Material.001
f 17/17/1 18/18/1 30/30/1
f 26/26/1 27/27/1 32/32/1
f 8/8/1 9/9/1 28/28/1
f 27/27/1 19/19/1 32/32/1
f 19/19/1 20/20/1 32/32/1
f 20/20/1 21/21/1 32/32/1
f 21/21/1 33/33/1 32/32/1
f 32/32/1 38/38/1 39/39/1
f 39/39/1 22/22/1 32/32/1
f 22/22/1 23/23/1 32/32/1
f 23/23/1 24/24/1 32/32/1
f 24/24/1 25/25/1 32/32/1
f 25/25/1 26/26/1 32/32/1
f 18/18/1 10/10/1 30/30/1
f 10/10/1 11/11/1 30/30/1
f 11/11/1 12/12/1 30/30/1
f 12/12/1 13/13/1 30/30/1
f 13/13/1 14/14/1 30/30/1
f 14/14/1 15/15/1 30/30/1
f 15/15/1 31/31/1 30/30/1
f 30/30/1 36/36/1 37/37/1
f 37/37/1 16/16/1 30/30/1
f 16/16/1 17/17/1 30/30/1
f 9/9/1 1/1/1 28/28/1
f 1/1/1 2/2/1 28/28/1
f 2/2/1 3/3/1 28/28/1
f 3/3/1 4/4/1 28/28/1
f 4/4/1 5/5/1 28/28/1
f 5/5/1 6/6/1 28/28/1
f 6/6/1 29/29/1 28/28/1
f 28/28/1 34/34/1 35/35/1
f 35/35/1 7/7/1 28/28/1
f 7/7/1 8/8/1 28/28/1
